<svg width="81" height="15" viewBox="0 0 81 15" fill="none" xmlns="http://www.w3.org/2000/svg">
<path d="M1.57035 9.39038H2.73702C3.38135 9.39038 3.90369 9.89406 3.90369 10.5154V12.7654C3.90369 13.3867 3.38135 13.8904 2.73702 13.8904H1.57035C0.926021 13.8904 0.403687 13.3867 0.403687 12.7654V10.5154C0.403687 9.89406 0.926021 9.39038 1.57035 9.39038Z" fill="black"/>
<path d="M6.57035 7.39038H7.73702C8.38135 7.39038 8.90369 7.89406 8.90369 8.51538V12.7654C8.90369 13.3867 8.38135 13.8904 7.73702 13.8904H6.57035C5.92602 13.8904 5.40369 13.3867 5.40369 12.7654V8.51538C5.40369 7.89406 5.92602 7.39038 6.57035 7.39038Z" fill="black"/>
<path opacity="0.2" d="M11.5704 4.39038H12.737C13.3814 4.39038 13.9037 4.89406 13.9037 5.51538V12.7654C13.9037 13.3867 13.3814 13.8904 12.737 13.8904H11.5704C10.926 13.8904 10.4037 13.3867 10.4037 12.7654V5.51538C10.4037 4.89406 10.926 4.39038 11.5704 4.39038Z" fill="black"/>
<path opacity="0.2" d="M16.5704 1.39038H17.737C18.3814 1.39038 18.9037 1.89406 18.9037 2.51538V12.7654C18.9037 13.3867 18.3814 13.8904 17.737 13.8904H16.5704C15.926 13.8904 15.4037 13.3867 15.4037 12.7654V2.51538C15.4037 1.89406 15.926 1.39038 16.5704 1.39038Z" fill="black"/>
<path d="M43.2259 6.16151C42.8831 6.10832 42.6142 6.09355 42.694 5.96943C42.7737 5.84532 43.4682 5.54687 43.4593 4.94405C43.4386 3.61134 41.509 3.93048 41.4026 5.04747C41.051 8.80329 39.1302 7.8961 38.3471 7.40852C38.4328 7.3967 38.5185 7.38193 38.6042 7.3642C38.6692 7.35238 38.7313 7.33465 38.7933 7.31987L38.8229 7.38784C38.8318 7.42034 38.8672 7.43512 38.8968 7.42034C38.9322 7.40261 38.9825 7.38488 39.0416 7.37602C39.0741 7.37011 39.0948 7.3376 39.0859 7.3051L39.0711 7.22531C39.1627 7.18985 39.2514 7.14553 39.3371 7.09529L39.3843 7.14848C39.4021 7.17508 39.4405 7.18099 39.4671 7.15735C39.4966 7.13075 39.538 7.09529 39.5912 7.0687C39.6207 7.05392 39.6296 7.01551 39.6119 6.98891L39.5764 6.9239C39.6473 6.86185 39.7094 6.79388 39.7685 6.72001L39.8246 6.74069C39.8542 6.75547 39.8897 6.74069 39.9015 6.71114C39.9133 6.67273 39.9369 6.62545 39.9694 6.57521C39.9872 6.54862 39.9783 6.5102 39.9488 6.49543L39.9133 6.47179C39.9488 6.392 39.9753 6.30926 39.9931 6.22652H40.0433C40.0758 6.23243 40.1054 6.20584 40.1054 6.17333C40.1054 6.13491 40.1083 6.07877 40.1261 6.02262C40.1349 5.99012 40.1142 5.95761 40.0817 5.95466L40.0374 5.94284C40.0433 5.86305 40.0404 5.78327 40.0374 5.70644C40.0374 5.68575 40.0344 5.66802 40.0315 5.64734L40.0758 5.63552C40.1083 5.62961 40.129 5.60006 40.1201 5.56755C40.1083 5.52914 40.0995 5.47595 40.0965 5.41685C40.0965 5.38434 40.067 5.35775 40.0344 5.36366H39.9931C39.9753 5.2691 39.9547 5.17454 39.931 5.07998L39.9635 5.06816C39.996 5.06225 40.0138 5.02679 40.0019 4.99724C39.9872 4.95882 39.9724 4.90859 39.9665 4.84949C39.9635 4.81698 39.931 4.79334 39.8985 4.79925L39.8571 4.80516C39.8512 4.77857 39.8424 4.75197 39.8365 4.72538C39.8246 4.67219 39.8099 4.62195 39.7951 4.56876L39.8217 4.5599C39.8512 4.55399 39.869 4.52148 39.8571 4.49193C39.8453 4.45647 39.8306 4.40919 39.8246 4.35305C39.8246 4.3235 39.7921 4.29986 39.7626 4.30872H39.7301C39.7094 4.23189 39.6887 4.14915 39.668 4.06937L39.6976 4.05754C39.7242 4.05163 39.7389 4.02504 39.7301 4.0014C39.7183 3.97185 39.7064 3.93048 39.7035 3.8832C39.7035 3.8566 39.6769 3.83887 39.6503 3.84478L39.6119 3.85069C39.5853 3.74727 39.5587 3.64384 39.5291 3.54042C39.5291 3.53451 39.5262 3.52564 39.5232 3.51973L39.5557 3.50791C39.5823 3.502 39.5971 3.47541 39.5882 3.45177C39.5764 3.42222 39.5646 3.38085 39.5616 3.33357C39.5616 3.30697 39.5351 3.28924 39.5085 3.29515L39.4671 3.30106C39.4405 3.20355 39.4169 3.10899 39.3903 3.01147L39.4169 3.00261C39.4434 2.9967 39.4582 2.9701 39.4494 2.94646C39.4375 2.91691 39.4257 2.87554 39.4228 2.82826C39.4228 2.80167 39.3962 2.78394 39.3696 2.78985H39.343C39.3371 2.76916 39.3312 2.74257 39.3252 2.71597C39.3134 2.65687 39.3105 2.59777 39.3105 2.53867H39.3489C39.3755 2.54754 39.3991 2.52981 39.3991 2.50321C39.3991 2.47071 39.408 2.42934 39.4228 2.38501C39.4316 2.36137 39.4169 2.33182 39.3903 2.32887L39.3459 2.31409C39.3637 2.24908 39.3903 2.18703 39.4198 2.12793C39.4316 2.10724 39.4434 2.08655 39.4553 2.06587L39.4789 2.0836C39.4966 2.10133 39.5291 2.09838 39.5439 2.07769C39.5616 2.05109 39.5882 2.01859 39.6267 1.98904C39.6473 1.97131 39.6473 1.94176 39.6267 1.92403L39.5971 1.89152C39.6503 1.84129 39.7094 1.79696 39.7715 1.75855L39.7862 1.78219C39.798 1.80583 39.8276 1.81469 39.8483 1.79992C39.8749 1.78219 39.9103 1.7615 39.9547 1.74673C39.9783 1.73786 39.9931 1.71127 39.9813 1.68763L39.9753 1.67285C40.0522 1.64921 40.129 1.63739 40.2058 1.63444V1.64035C40.2058 1.66694 40.2265 1.68763 40.2531 1.68467C40.2856 1.68467 40.327 1.68467 40.3743 1.69058C40.4009 1.69649 40.4245 1.67581 40.4275 1.64921C40.5132 1.66399 40.5959 1.69058 40.6727 1.729C40.8796 1.83242 41.0451 2.01268 41.1308 2.22544C41.2283 2.47071 41.2194 2.75143 41.1012 2.99079C40.983 3.2331 40.7584 3.41926 40.4984 3.49018C40.4629 3.49905 40.4275 3.50791 40.389 3.51382C40.3595 3.51678 40.3299 3.51382 40.3004 3.5286C40.2738 3.54337 40.2561 3.56997 40.2531 3.59952C40.2531 3.62316 40.262 3.67044 40.2856 3.6793C40.2974 3.68521 40.324 3.6793 40.3359 3.6793C40.3506 3.6793 40.3654 3.6793 40.3802 3.67635C40.4068 3.67635 40.4363 3.67044 40.4629 3.66453C40.522 3.65566 40.5782 3.63793 40.6343 3.6202C40.853 3.54633 41.0451 3.40449 41.181 3.22128C41.3199 3.03511 41.3997 2.80462 41.4085 2.57118C41.4174 2.31409 41.2992 2.05405 41.1426 1.85311C40.8087 1.42168 40.2265 1.23551 39.7035 1.39213C39.2455 1.52806 38.8879 1.91221 38.7815 2.3791C38.7283 2.61846 38.749 2.86372 38.7815 3.10603C38.817 3.36903 38.8672 3.62907 38.9204 3.88615C38.9854 4.20234 39.0475 4.51853 39.1184 4.83471C39.1775 5.10066 39.2543 5.36957 39.2721 5.64143C39.278 5.74781 39.278 5.85714 39.2514 5.96057C39.2248 6.06695 39.1775 6.16742 39.1095 6.25312C38.9677 6.43928 38.752 6.56044 38.5274 6.61363C38.2733 6.67273 38.0132 6.64022 37.7946 6.49543C37.7886 6.49247 37.7827 6.48656 37.7768 6.48361C37.765 6.47474 37.7502 6.46588 37.7384 6.45701C37.7384 6.45701 37.7355 6.45406 37.7325 6.4511C37.7207 6.44224 37.7089 6.43042 37.697 6.42155C37.697 6.42155 37.6941 6.42155 37.6911 6.4186C37.6793 6.40678 37.6645 6.39496 37.6527 6.38314C37.6409 6.37132 37.6261 6.35654 37.6143 6.34472C37.6143 6.34472 37.6143 6.34472 37.6143 6.34177C37.6025 6.32995 37.5936 6.31813 37.5847 6.30926C37.5788 6.30335 37.5729 6.29744 37.57 6.29153C37.5641 6.28562 37.5582 6.27971 37.5552 6.2738C37.5493 6.26494 37.5434 6.25903 37.5375 6.25016C37.5345 6.24721 37.5316 6.2413 37.5286 6.23834C37.4931 6.19106 37.4606 6.14378 37.434 6.09059C37.4252 6.07286 37.4134 6.05513 37.4045 6.0374C37.4045 6.0374 37.4045 6.03149 37.4015 6.03149C37.3395 5.90442 37.304 5.77145 37.2952 5.64734C37.2952 5.64734 37.2952 5.64143 37.2952 5.63847C37.2952 5.6237 37.2952 5.61188 37.2952 5.5971C37.2952 5.53209 37.307 5.46117 37.3306 5.3873C37.3838 5.21886 37.5345 5.18931 37.6586 5.19818C37.8064 4.96473 37.7946 4.76084 37.765 4.63968C37.7148 4.619 37.6645 4.59536 37.6261 4.58058C37.5463 4.54512 37.4636 4.49193 37.5079 4.21712C37.5936 3.68521 37.7207 2.99965 37.7946 2.54163C37.8093 2.47071 37.8182 2.39683 37.8241 2.32591C37.8241 2.32 37.8241 2.31705 37.8241 2.31114C37.8241 2.30523 37.8241 2.30227 37.8241 2.29636C37.8241 2.25795 37.8271 2.21953 37.8271 2.18112C37.8271 1.19119 37.0469 0.390381 36.0836 0.390381C36.06 0.390381 36.0393 0.390381 36.0156 0.390381C35.992 0.390381 35.9713 0.390381 35.9477 0.390381C34.9843 0.390381 34.2042 1.19119 34.2042 2.18112C34.2042 2.21953 34.2042 2.25795 34.2072 2.29636C34.2072 2.30227 34.2072 2.30523 34.2072 2.31114C34.2072 2.31409 34.2072 2.32 34.2072 2.32591C34.2131 2.39979 34.2219 2.47071 34.2367 2.54163C34.3076 2.99965 34.4377 3.68521 34.5234 4.21712C34.5677 4.49193 34.482 4.54512 34.4052 4.58058C34.3667 4.59831 34.3165 4.619 34.2663 4.63968C34.2367 4.76084 34.2279 4.96473 34.3727 5.19818C34.4968 5.18931 34.6445 5.21886 34.7007 5.3873C34.7243 5.46413 34.7361 5.53209 34.7361 5.5971C34.7361 5.61188 34.7361 5.62665 34.7361 5.63847C34.7361 5.63847 34.7361 5.64438 34.7361 5.64734C34.7273 5.7744 34.6888 5.90738 34.6297 6.03149C34.6297 6.03149 34.6297 6.0374 34.6268 6.0374C34.6179 6.05513 34.6091 6.07286 34.5972 6.09059C34.5677 6.14083 34.5381 6.19106 34.5027 6.23834C34.4997 6.2413 34.4968 6.24721 34.4938 6.25016C34.4879 6.25903 34.482 6.26494 34.4761 6.2738C34.4702 6.27971 34.4643 6.28562 34.4613 6.29153C34.4554 6.29744 34.4495 6.30335 34.4436 6.30926C34.4347 6.32108 34.4229 6.3329 34.414 6.34177C34.414 6.34177 34.414 6.34177 34.414 6.34472C34.4022 6.35654 34.3874 6.37132 34.3756 6.38314C34.3638 6.39496 34.352 6.40678 34.3372 6.41564C34.3372 6.41564 34.3342 6.41564 34.3313 6.4186C34.3195 6.42746 34.3076 6.43928 34.2958 6.44815C34.2958 6.44815 34.2929 6.4511 34.2899 6.45406C34.2781 6.46292 34.2663 6.47179 34.2515 6.48065C34.2456 6.48361 34.2397 6.48952 34.2338 6.49247C34.0121 6.63727 33.7551 6.66977 33.5009 6.61067C33.2734 6.56044 33.0606 6.43633 32.9188 6.25016C32.8508 6.16447 32.8035 6.06399 32.777 5.95761C32.7533 5.85419 32.7504 5.7419 32.7563 5.63847C32.771 5.36661 32.8479 5.09771 32.9099 4.83176C32.9808 4.51557 33.0429 4.19939 33.1079 3.8832C33.1611 3.62316 33.2113 3.36312 33.2468 3.10308C33.2793 2.86077 33.3 2.6155 33.2468 2.37615C33.1404 1.90925 32.7829 1.5251 32.3248 1.38917C31.8018 1.23256 31.2197 1.41872 30.8857 1.85015C30.7291 2.05109 30.6139 2.31114 30.6198 2.56822C30.6257 2.80167 30.7055 3.0292 30.8473 3.21832C30.9833 3.40153 31.1783 3.54337 31.394 3.61725C31.4502 3.63793 31.5063 3.65271 31.5654 3.66157C31.592 3.66748 31.6215 3.67044 31.6481 3.67339C31.6629 3.67339 31.6777 3.67339 31.6925 3.67635C31.7043 3.67635 31.7309 3.68226 31.7427 3.67635C31.7693 3.66748 31.7782 3.6202 31.7752 3.59656C31.7752 3.56701 31.7545 3.54042 31.7279 3.52564C31.7013 3.51087 31.6718 3.51382 31.6393 3.51087C31.6038 3.50496 31.5654 3.49905 31.5299 3.48723C31.2669 3.41631 31.0453 3.23014 30.9271 2.98783C30.8119 2.75143 30.8001 2.46775 30.8976 2.22249C30.9833 2.00677 31.1487 1.82651 31.3556 1.72604C31.4324 1.68763 31.5152 1.66103 31.6009 1.6433C31.6009 1.6699 31.6275 1.68763 31.654 1.68467C31.7013 1.67581 31.7427 1.67581 31.7752 1.67876C31.8018 1.67876 31.8225 1.65808 31.8225 1.63444V1.62853C31.9023 1.63148 31.9791 1.64626 32.0559 1.66694L32.05 1.68172C32.0382 1.70536 32.05 1.73491 32.0766 1.74082C32.1209 1.75559 32.1594 1.77923 32.183 1.79401C32.2037 1.80878 32.2332 1.79992 32.245 1.77628L32.2598 1.75264C32.3219 1.79105 32.381 1.83538 32.4342 1.88561L32.4046 1.91812C32.3839 1.93585 32.3869 1.9654 32.4046 1.98313C32.4401 2.01268 32.4696 2.04518 32.4874 2.07178C32.5021 2.09247 32.5317 2.09542 32.5524 2.07769L32.576 2.05996C32.5878 2.08064 32.5997 2.10133 32.6115 2.12202C32.641 2.18112 32.6676 2.24317 32.6853 2.30818L32.641 2.32296C32.6144 2.32887 32.5997 2.35546 32.6085 2.3791C32.6233 2.42343 32.6292 2.46775 32.6322 2.4973C32.6322 2.5239 32.6588 2.54163 32.6824 2.53572H32.7208C32.7208 2.59186 32.7208 2.65096 32.706 2.71006C32.7001 2.73666 32.6942 2.7603 32.6883 2.78689H32.6617C32.6351 2.77803 32.6115 2.79576 32.6085 2.82235C32.6026 2.86963 32.5908 2.911 32.5819 2.94055C32.5731 2.96419 32.5878 2.99079 32.6144 2.9967L32.641 3.00556C32.6174 3.10308 32.5908 3.19764 32.5642 3.29515L32.5228 3.28924C32.4962 3.28333 32.4726 3.30106 32.4696 3.32766C32.4637 3.37494 32.4519 3.41631 32.443 3.44586C32.4342 3.4695 32.4489 3.49609 32.4755 3.502L32.508 3.51382C32.508 3.51382 32.5051 3.5286 32.5021 3.53451C32.4755 3.63793 32.4489 3.74136 32.4194 3.84478L32.381 3.83887C32.3544 3.83296 32.3307 3.85069 32.3278 3.87729C32.3219 3.92457 32.3101 3.96594 32.3012 3.99549C32.2923 4.01913 32.3071 4.04572 32.3337 4.05163L32.3633 4.06345C32.3426 4.1462 32.3219 4.22598 32.3012 4.30872H32.2687C32.2391 4.2969 32.2096 4.32054 32.2066 4.35009C32.2007 4.40624 32.1859 4.45352 32.1741 4.48898C32.1623 4.51853 32.18 4.54808 32.2096 4.55694L32.2362 4.56581C32.2214 4.619 32.2096 4.66923 32.1948 4.72242C32.1889 4.74902 32.18 4.77561 32.1741 4.80221L32.1328 4.7963C32.1003 4.78743 32.0707 4.81107 32.0648 4.84653C32.0589 4.90563 32.0441 4.95882 32.0293 4.99428C32.0175 5.02383 32.0352 5.05929 32.0677 5.0652L32.1003 5.07702C32.0766 5.17158 32.0559 5.26614 32.0382 5.36366H31.9968C31.9643 5.35775 31.9348 5.38139 31.9348 5.41685C31.9348 5.47595 31.923 5.52914 31.9111 5.56755C31.9023 5.60006 31.923 5.63256 31.9555 5.63552L31.9998 5.64734C31.9998 5.66802 31.9968 5.68575 31.9939 5.70644C31.988 5.78622 31.988 5.86601 31.9939 5.94284L31.9495 5.95466C31.917 5.95761 31.8964 5.99307 31.9052 6.02262C31.92 6.08172 31.9259 6.13491 31.9259 6.17333C31.9259 6.20584 31.9555 6.23243 31.988 6.22652H32.0382C32.0589 6.30926 32.0855 6.392 32.118 6.47179L32.0825 6.49543C32.053 6.5102 32.0441 6.54862 32.0618 6.57521C32.0973 6.62545 32.118 6.67568 32.1298 6.71114C32.1416 6.74069 32.1771 6.75547 32.2066 6.74069L32.2628 6.72001C32.3189 6.79388 32.3839 6.86185 32.4549 6.9239L32.4194 6.98891C32.3987 7.01551 32.4105 7.05392 32.4401 7.0687C32.4933 7.09825 32.5346 7.13075 32.5642 7.15735C32.5878 7.18099 32.6262 7.17508 32.6469 7.14848L32.6942 7.09529C32.7799 7.14553 32.8686 7.1869 32.9602 7.22531L32.9454 7.3051C32.9365 7.3376 32.9572 7.37011 32.9897 7.37602C33.0488 7.38488 33.099 7.40557 33.1345 7.42034C33.1641 7.43512 33.1995 7.42034 33.2084 7.38784L33.2379 7.31987C33.3 7.3376 33.365 7.35238 33.4271 7.3642C33.5127 7.38193 33.5984 7.3967 33.6841 7.40852C32.9011 7.8961 30.9803 8.80329 30.6287 5.04747C30.5252 3.93048 28.5927 3.61134 28.572 4.94405C28.5631 5.54687 29.2575 5.84532 29.3373 5.96943C29.4171 6.09059 29.1482 6.10832 28.8054 6.16151C28.4626 6.2147 28.3533 6.44519 28.4242 6.65204C28.4833 6.81752 28.7877 6.89731 29.3314 6.98891C29.5087 7.01846 29.4792 6.87071 29.3905 6.86776C29.3905 6.86776 28.569 6.73478 28.5868 6.54566C28.6193 6.2147 29.8249 6.47179 29.6771 5.96352C29.5678 5.59415 28.8911 5.50845 28.897 5.01497C28.9 4.67219 29.1009 4.50966 29.3373 4.49489V4.50966C29.3314 4.54217 29.3551 4.57172 29.3876 4.57172C29.4467 4.57172 29.4969 4.58649 29.5324 4.59831C29.5619 4.60718 29.5944 4.58945 29.6003 4.55694L29.6062 4.53921C29.6831 4.56876 29.7569 4.61309 29.8219 4.66923L29.7983 4.69287C29.7717 4.71356 29.7717 4.74902 29.7924 4.77266C29.8338 4.81403 29.8633 4.85835 29.881 4.89086C29.8958 4.91745 29.9342 4.92632 29.9579 4.90563L29.9904 4.8879C30.0288 4.96769 30.0554 5.05634 30.0643 5.15681C30.0643 5.16863 30.0643 5.1834 30.0672 5.20409L30.0377 5.21C30.0052 5.21591 29.9845 5.24546 29.9933 5.27796C30.0081 5.33411 30.014 5.3873 30.014 5.42571C30.014 5.45822 30.0436 5.48186 30.0731 5.47595H30.0849C30.0938 5.57051 30.1027 5.67984 30.1174 5.80395L30.0938 5.80986C30.0554 5.81577 30.0317 5.85419 30.0436 5.88965C30.0613 5.95466 30.0672 6.01967 30.0672 6.064C30.0672 6.10241 30.1027 6.129 30.1381 6.12605H30.1588C30.1706 6.21766 30.1854 6.31222 30.2031 6.40678L30.1795 6.41269C30.1411 6.4186 30.1174 6.45701 30.1293 6.49247C30.147 6.55748 30.1529 6.62249 30.1529 6.66682C30.1529 6.70523 30.1884 6.73183 30.2238 6.72887H30.2622C30.28 6.82048 30.3007 6.91208 30.3243 7.00369L30.2741 7.01846C30.2356 7.02733 30.215 7.06574 30.2268 7.1012C30.2475 7.16621 30.2563 7.22827 30.2593 7.27259C30.2593 7.31101 30.2977 7.3376 30.3332 7.32874L30.41 7.32283C30.4425 7.43216 30.4809 7.53854 30.5193 7.64197L30.4455 7.68629C30.41 7.70402 30.4011 7.74539 30.4218 7.7779C30.4602 7.83404 30.4839 7.89314 30.4986 7.93451C30.5105 7.96997 30.5518 7.9877 30.5843 7.96997L30.6553 7.94338C30.7055 8.03794 30.7616 8.12659 30.8207 8.20638L30.7764 8.26548C30.7498 8.29207 30.7557 8.3364 30.7853 8.36004C30.8414 8.40141 30.8828 8.44573 30.9123 8.48119C30.936 8.51074 30.9803 8.51074 31.0069 8.48415L31.0571 8.44278C31.1428 8.5137 31.2315 8.57575 31.3231 8.62894L31.2965 8.72055C31.2817 8.75601 31.3024 8.79442 31.3379 8.80624C31.4029 8.82397 31.459 8.85057 31.5004 8.87421C31.5329 8.89194 31.5743 8.87716 31.589 8.84466L31.6275 8.77669C31.7309 8.81511 31.8343 8.84761 31.9407 8.8683L31.9318 8.96877C31.9259 9.00718 31.9525 9.03969 31.9909 9.04264C32.0589 9.0456 32.1209 9.06037 32.1623 9.07515C32.1978 9.08697 32.2362 9.06333 32.2421 9.02787L32.2746 8.91853C32.3869 8.9274 32.4992 8.93035 32.6085 8.92444L32.6203 8.9865C32.6233 9.02491 32.6617 9.04855 32.6972 9.03969C32.7651 9.02491 32.8272 9.02196 32.8715 9.02196C32.9099 9.02196 32.9395 8.98945 32.9336 8.95399V8.89489C33.0518 8.88012 33.17 8.85648 33.2793 8.83284L33.3029 8.89489C33.3118 8.93331 33.3532 8.95104 33.3886 8.93626C33.4507 8.90967 33.5127 8.89785 33.5571 8.88898C33.5955 8.88307 33.6191 8.84761 33.6073 8.8092L33.5955 8.74714C33.7757 8.691 33.9353 8.6319 34.0624 8.57871C33.8762 9.17857 33.1759 10.0858 30.5843 9.45339C29.2191 9.11947 28.9414 10.1035 28.965 10.5822C28.9827 10.8836 29.1334 11.3505 29.488 11.6962C30.1411 12.3788 30.7794 12.1572 30.8266 11.9415C30.871 11.7435 30.7321 11.6342 30.41 11.3564C30.2534 11.2205 29.9047 10.9161 30.0436 10.8275C30.1381 10.7743 30.3302 10.8659 30.4455 10.9486C30.4927 10.9811 30.5755 10.9279 30.4986 10.8541C30.3804 10.7418 29.8426 10.4995 29.8456 10.8718C29.8456 11.2382 30.7971 11.7819 30.5341 11.8765C30.1943 11.9976 29.887 11.7199 29.6683 11.4421C29.6121 11.3623 29.556 11.2619 29.5058 11.1496C29.3432 10.7802 29.3935 10.4285 29.5826 10.3044C29.7303 10.2069 29.9313 10.204 30.1706 10.2453V10.266C30.1618 10.2956 30.1825 10.3251 30.215 10.3281C30.2711 10.334 30.3213 10.3488 30.3568 10.3606C30.3864 10.3724 30.4189 10.3547 30.4248 10.3222L30.4307 10.3015C30.5282 10.3281 30.6287 10.3547 30.735 10.3872L30.7291 10.4197C30.7203 10.4551 30.7439 10.4876 30.7794 10.4936C30.8444 10.5024 30.8976 10.5201 30.9389 10.5349C30.9714 10.5497 31.0069 10.529 31.0158 10.4965L31.0246 10.4729C31.1133 10.4995 31.2049 10.5231 31.2994 10.5467L31.2935 10.597C31.2847 10.6354 31.3113 10.6709 31.3497 10.6738C31.4176 10.6797 31.4797 10.6974 31.5211 10.7122C31.5565 10.724 31.5949 10.7034 31.6038 10.6679L31.6186 10.6206C31.7102 10.6383 31.8048 10.6561 31.8993 10.6709L31.8934 10.7122C31.8845 10.7506 31.9111 10.7861 31.9495 10.7891C32.0175 10.795 32.0796 10.8127 32.1209 10.8275C32.1564 10.8393 32.1948 10.8186 32.2037 10.7831L32.2303 10.7034C32.316 10.7093 32.4046 10.7093 32.4933 10.7063L32.508 10.7979C32.508 10.8363 32.5465 10.8629 32.5849 10.8541C32.6528 10.8393 32.7149 10.8393 32.7592 10.8422C32.7976 10.8422 32.8272 10.8127 32.8242 10.7743V10.6738C32.9129 10.662 33.0015 10.6443 33.0872 10.6206L33.1316 10.7181C33.1434 10.7536 33.1847 10.7713 33.2202 10.7536C33.2823 10.724 33.3414 10.7063 33.3857 10.6974C33.4211 10.6886 33.4448 10.6502 33.433 10.6147L33.4093 10.5113C33.4891 10.4788 33.5689 10.4404 33.6457 10.399L33.69 10.4492C33.7137 10.4817 33.758 10.4847 33.7846 10.4581C33.8348 10.4108 33.888 10.3783 33.9264 10.3576C33.959 10.3399 33.9708 10.2956 33.9471 10.266L33.9264 10.2276C33.959 10.204 33.9915 10.1803 34.024 10.1567C34.2367 10.0385 34.3786 10.0473 34.2308 10.4404C33.7048 11.8854 32.8686 13.9539 32.4578 13.6643C32.381 13.6111 32.3544 13.5165 32.3603 13.3954H32.3958C32.4283 13.4013 32.4549 13.3776 32.4549 13.3451C32.4549 13.289 32.4667 13.2388 32.4755 13.2033C32.4844 13.1737 32.4637 13.1442 32.4342 13.1383L32.4046 13.1324C32.4253 13.0408 32.4549 12.9433 32.4874 12.8457L32.5287 12.8516C32.5583 12.8605 32.5878 12.8398 32.5937 12.8073C32.6026 12.7512 32.6174 12.7039 32.6322 12.6684C32.644 12.6389 32.6262 12.6064 32.5967 12.6005L32.5671 12.5887C32.5967 12.4911 32.6262 12.3966 32.6499 12.305H32.6853C32.7179 12.3109 32.7444 12.2872 32.7444 12.2547C32.7444 12.1986 32.7563 12.1484 32.7651 12.1129C32.774 12.0833 32.7533 12.0538 32.7238 12.0479L32.7001 12.042C32.7208 11.7938 32.641 11.6283 32.3248 11.649C31.9377 11.6756 31.4088 12.8251 30.407 12.7246C30.3538 12.7187 30.2622 12.7128 30.2504 12.763C30.2416 12.8132 30.2888 12.8339 30.3391 12.8428C30.4189 12.8576 30.4957 12.8605 30.5666 12.8664C31.394 12.9196 32.245 11.9031 32.2628 12.1572C32.2953 12.6625 31.131 13.8268 32.2746 14.3321C32.5346 14.4474 32.8035 14.3853 33.0813 14.2021L33.0902 14.2109C33.1109 14.2435 33.1552 14.2464 33.1847 14.2228C33.235 14.1784 33.2911 14.1459 33.3295 14.1253C33.362 14.1075 33.3739 14.0662 33.3532 14.0336L33.3354 14.0011C33.4389 13.9095 33.5423 13.8002 33.6457 13.682L33.6664 13.6968C33.696 13.7234 33.7373 13.7175 33.761 13.685C33.7994 13.6288 33.8467 13.5845 33.8792 13.5549C33.9087 13.5313 33.9087 13.487 33.8792 13.4604L33.8496 13.4249C33.9294 13.3215 34.0092 13.2122 34.089 13.0999L34.151 13.1324C34.1835 13.1531 34.2249 13.1412 34.2426 13.1058C34.2722 13.0437 34.3106 12.9935 34.3402 12.958C34.3638 12.9285 34.3579 12.8871 34.3254 12.8664L34.2751 12.8251C34.3431 12.7187 34.4111 12.6123 34.482 12.5L34.5618 12.5414C34.5943 12.5621 34.6357 12.5502 34.6534 12.5148C34.6829 12.4527 34.7213 12.4025 34.7509 12.367C34.7745 12.3375 34.7686 12.2961 34.7361 12.2754L34.6563 12.2104C34.7036 12.1306 34.7509 12.0479 34.8011 11.9651L34.8573 11.9947C34.8898 12.0154 34.9312 12.0036 34.9489 11.9681C34.9784 11.906 35.0168 11.8558 35.0464 11.8203C35.07 11.7908 35.0641 11.7494 35.0316 11.7287L34.9666 11.6756C35.0198 11.5839 35.07 11.4923 35.1203 11.4007L35.1528 11.4185C35.1853 11.4392 35.2267 11.4273 35.2444 11.3919C35.2739 11.3298 35.3123 11.2796 35.3419 11.2441C35.3655 11.2146 35.3596 11.1732 35.3271 11.1525L35.2798 11.1141C35.333 11.0195 35.3833 10.925 35.4335 10.8334L35.4453 10.8393C35.4778 10.86 35.5192 10.8482 35.5369 10.8127C35.5665 10.7506 35.6049 10.7004 35.6344 10.6649C35.6581 10.6354 35.6522 10.594 35.6197 10.5733L35.5872 10.5467C35.6197 10.4876 35.6522 10.4285 35.6847 10.3694C35.7586 10.2128 35.992 10.2128 35.992 10.2128H36.0038C36.0038 10.2128 36.2373 10.2128 36.3111 10.3694C36.3436 10.4285 36.3762 10.4876 36.4087 10.5467L36.3761 10.5733C36.3436 10.594 36.3377 10.6383 36.3614 10.6649C36.3909 10.7004 36.4293 10.7506 36.4589 10.8127C36.4766 10.8482 36.518 10.86 36.5505 10.8393L36.5623 10.8334C36.6126 10.9279 36.6657 11.0195 36.716 11.1141L36.6687 11.1525C36.6362 11.1732 36.6303 11.2175 36.6539 11.2441C36.6835 11.2796 36.7219 11.3298 36.7514 11.3919C36.7692 11.4273 36.8105 11.4392 36.843 11.4185L36.8755 11.4007C36.9258 11.4923 36.979 11.5839 37.0292 11.6756L36.9642 11.7287C36.9317 11.7494 36.9258 11.7938 36.9494 11.8203C36.979 11.8558 37.0174 11.906 37.0469 11.9681C37.0647 12.0036 37.106 12.0154 37.1385 11.9947L37.1947 11.9651C37.242 12.0479 37.2892 12.1306 37.3395 12.2104L37.2597 12.2754C37.2272 12.2961 37.2213 12.3404 37.2449 12.367C37.2745 12.4025 37.3129 12.4527 37.3424 12.5148C37.3602 12.5502 37.4015 12.5621 37.434 12.5414L37.5138 12.5C37.5818 12.6093 37.6498 12.7187 37.7207 12.8251L37.6704 12.8664C37.6379 12.8871 37.632 12.9314 37.6557 12.958C37.6852 12.9935 37.7236 13.0437 37.7532 13.1058C37.7709 13.1412 37.8123 13.1531 37.8448 13.1324L37.9068 13.0999C37.9866 13.2151 38.0664 13.3244 38.1462 13.4249L38.1166 13.4604C38.0901 13.487 38.0901 13.5313 38.1166 13.5549C38.1521 13.5845 38.1964 13.6288 38.2348 13.685C38.2555 13.7175 38.2999 13.7234 38.3294 13.6968L38.3501 13.682C38.4535 13.8002 38.5569 13.9095 38.6604 14.0011L38.6426 14.0336C38.622 14.0662 38.6338 14.1075 38.6663 14.1253C38.7077 14.1459 38.7608 14.1784 38.8111 14.2228C38.8406 14.2494 38.885 14.2435 38.9056 14.2109L38.9145 14.2021C39.1923 14.3853 39.4641 14.4474 39.7212 14.3321C40.8648 13.8268 39.7005 12.6625 39.733 12.1572C39.7478 11.9031 40.5989 12.9196 41.4292 12.8664C41.5001 12.8605 41.577 12.8605 41.6567 12.8428C41.707 12.8339 41.7572 12.8132 41.7454 12.763C41.7365 12.7128 41.642 12.7187 41.5888 12.7246C40.587 12.8251 40.0581 11.6756 39.671 11.649C39.3578 11.6283 39.275 11.7938 39.2957 12.042L39.2721 12.0479C39.2425 12.0508 39.2218 12.0833 39.2307 12.1129C39.2396 12.1484 39.2514 12.1986 39.2514 12.2547C39.2514 12.2872 39.278 12.3109 39.3105 12.305H39.3459C39.3696 12.3936 39.3962 12.4882 39.4287 12.5857L39.3991 12.5975C39.3696 12.6064 39.3518 12.6389 39.3637 12.6655C39.3784 12.7009 39.3932 12.7482 39.4021 12.8044C39.405 12.8369 39.4375 12.8576 39.4671 12.8487L39.5085 12.8428C39.541 12.9433 39.5676 13.0378 39.5912 13.1294L39.5616 13.1353C39.5321 13.1383 39.5114 13.1708 39.5203 13.2003C39.5291 13.2358 39.541 13.286 39.541 13.3422C39.541 13.3747 39.5676 13.3983 39.6001 13.3924H39.6355C39.6414 13.5136 39.6148 13.6081 39.538 13.6613C39.1273 13.948 38.288 11.8824 37.765 10.4374C37.6202 10.0444 37.7591 10.0385 37.9719 10.1537C38.0044 10.1774 38.0369 10.201 38.0694 10.2246L38.0487 10.2631C38.028 10.2926 38.0369 10.3369 38.0694 10.3547C38.1107 10.3754 38.161 10.4079 38.2112 10.4551C38.2378 10.4817 38.2821 10.4788 38.3058 10.4463L38.3501 10.396C38.4299 10.4374 38.5097 10.4758 38.5865 10.5083L38.5629 10.6118C38.551 10.6472 38.5717 10.6856 38.6101 10.6945C38.6545 10.7034 38.7136 10.7211 38.7756 10.7506C38.8111 10.7684 38.8524 10.7506 38.8643 10.7152L38.9086 10.6177C38.9943 10.6413 39.0829 10.659 39.1686 10.6709V10.7713C39.1686 10.8097 39.2011 10.8393 39.2396 10.8393C39.2839 10.8393 39.3459 10.8393 39.4139 10.8511C39.4523 10.86 39.4878 10.8334 39.4907 10.795L39.5055 10.7034C39.5942 10.7034 39.6828 10.7034 39.7685 10.7004L39.7951 10.7802C39.804 10.8156 39.8424 10.8393 39.8778 10.8245C39.9192 10.8097 39.9813 10.792 40.0492 10.7861C40.0876 10.7831 40.1142 10.7477 40.1054 10.7093L40.0995 10.6679C40.194 10.6531 40.2886 10.6383 40.3802 10.6177L40.395 10.6649C40.4038 10.7004 40.4422 10.724 40.4777 10.7093C40.5191 10.6945 40.5811 10.6768 40.6491 10.6709C40.6875 10.6679 40.7141 10.6324 40.7052 10.594L40.6993 10.5438C40.7939 10.5201 40.8825 10.4936 40.9741 10.4699L40.983 10.4936C40.9919 10.529 41.0273 10.5467 41.0598 10.532C41.0983 10.5172 41.1544 10.4965 41.2194 10.4906C41.2549 10.4847 41.2785 10.4522 41.2696 10.4167L41.2637 10.3842C41.3701 10.3517 41.4706 10.3251 41.5681 10.2985L41.574 10.3192C41.5799 10.3488 41.6124 10.3665 41.642 10.3576C41.6774 10.3458 41.7277 10.331 41.7838 10.3251C41.8163 10.3251 41.837 10.2926 41.8311 10.2631V10.2424C42.0675 10.201 42.2684 10.204 42.4162 10.3015C42.6053 10.4256 42.6555 10.7772 42.493 11.1466C42.4428 11.2619 42.3866 11.3594 42.3305 11.4392C42.1148 11.7169 41.8045 11.9976 41.4647 11.8735C41.2046 11.779 42.1532 11.2323 42.1532 10.8688C42.1532 10.4965 41.6183 10.7388 41.5001 10.8511C41.4233 10.922 41.506 10.9782 41.5533 10.9457C41.6686 10.8629 41.8606 10.7713 41.9552 10.8245C42.0941 10.9132 41.7454 11.2175 41.5888 11.3535C41.2667 11.6312 41.1278 11.7406 41.1721 11.9385C41.2194 12.1543 41.8577 12.3729 42.5107 11.6933C42.8653 11.3475 43.0161 10.8807 43.0338 10.5792C43.0604 10.1005 42.7826 9.11652 41.4144 9.45043C38.8229 10.0828 38.1226 9.17562 37.9364 8.57575C38.0635 8.62894 38.2201 8.68804 38.4033 8.74419L38.3915 8.80624C38.3826 8.8417 38.4062 8.88012 38.4417 8.88603C38.486 8.89194 38.5481 8.90671 38.6101 8.93331C38.6456 8.94808 38.687 8.93035 38.6958 8.89194L38.7195 8.82988C38.8318 8.85648 38.947 8.87716 39.0652 8.89194V8.95104C39.0623 8.98945 39.0918 9.02196 39.1273 9.019C39.1716 9.019 39.2336 9.019 39.3016 9.03673C39.34 9.0456 39.3755 9.02196 39.3784 8.98354L39.3903 8.92149C39.4996 8.92444 39.6119 8.92149 39.7242 8.91558L39.7567 9.02491C39.7626 9.06333 39.801 9.08401 39.8365 9.07219C39.8808 9.05742 39.9399 9.04264 40.0079 9.03969C40.0463 9.03969 40.0758 9.00423 40.067 8.96581L40.0581 8.86534C40.1645 8.8417 40.2679 8.81215 40.3713 8.77374L40.4097 8.8417C40.4245 8.87716 40.4659 8.89194 40.4984 8.87125C40.5368 8.84761 40.5929 8.82102 40.6609 8.80329C40.6993 8.79442 40.7171 8.75305 40.7023 8.71759L40.6757 8.62599C40.7673 8.5728 40.8559 8.51074 40.9416 8.43982L40.9919 8.48119C41.0185 8.50779 41.0628 8.50779 41.0864 8.47824C41.116 8.44278 41.1574 8.3955 41.2135 8.35708C41.243 8.33344 41.249 8.28912 41.2224 8.26252L41.178 8.20342C41.2371 8.12659 41.2933 8.03794 41.3435 7.94042L41.4144 7.96702C41.4469 7.98475 41.4883 7.96702 41.5001 7.93156C41.5149 7.89019 41.5385 7.83109 41.577 7.77494C41.5976 7.74244 41.5888 7.70107 41.5533 7.68334L41.4794 7.63901C41.5208 7.53559 41.5563 7.42921 41.5888 7.31987L41.6656 7.32578C41.704 7.33169 41.7365 7.3051 41.7395 7.26964C41.7395 7.22531 41.7513 7.16326 41.772 7.09825C41.7838 7.06279 41.7631 7.02437 41.7247 7.01551L41.6745 7.00073C41.6981 6.90913 41.7158 6.81752 41.7365 6.72592H41.7749C41.8134 6.73183 41.8459 6.70523 41.8459 6.66682C41.8459 6.62249 41.8518 6.56044 41.8695 6.49247C41.8784 6.45406 41.8577 6.4186 41.8193 6.41269L41.7956 6.40678C41.8104 6.30926 41.8252 6.2147 41.84 6.12309H41.8606C41.8991 6.129 41.9316 6.09946 41.9316 6.064C41.9316 6.01967 41.9375 5.95761 41.9552 5.88965C41.9641 5.85123 41.9434 5.81577 41.905 5.80986L41.8813 5.80395C41.8961 5.6828 41.905 5.57051 41.9138 5.47595H41.9257C41.9582 5.48186 41.9848 5.45822 41.9848 5.42571C41.9848 5.3873 41.9907 5.33411 42.0054 5.27796C42.0143 5.24546 41.9936 5.21591 41.9611 5.21L41.9316 5.20409C41.9316 5.1834 41.9316 5.16863 41.9345 5.15681C41.9434 5.05634 41.97 4.96769 42.0084 4.8879L42.0409 4.90563C42.0675 4.92336 42.103 4.91745 42.1177 4.89086C42.1355 4.85835 42.165 4.81403 42.2064 4.77266C42.23 4.74902 42.2271 4.7106 42.2005 4.69287L42.1768 4.66923C42.2418 4.61309 42.3157 4.56876 42.3925 4.53921L42.3985 4.55694C42.4044 4.58945 42.4369 4.60718 42.4664 4.59831C42.5019 4.58649 42.5551 4.57467 42.6112 4.57172C42.6437 4.57172 42.6674 4.54217 42.6614 4.50966V4.49489C42.8949 4.50966 43.0958 4.67219 43.0988 5.01497C43.1047 5.50845 42.428 5.59415 42.3187 5.96352C42.168 6.47474 43.3766 6.21766 43.4091 6.54566C43.4268 6.73478 42.6053 6.86776 42.6053 6.86776C42.5137 6.87071 42.4871 7.01846 42.6644 6.98891C43.2081 6.89731 43.5125 6.81752 43.5716 6.65204C43.6455 6.44519 43.5361 6.2147 43.1904 6.16151H43.2259Z" fill="black"/>
<path opacity="0.3" fill-rule="evenodd" clip-rule="evenodd" d="M53.5935 7.39038C53.5935 4.58146 53.5935 3.17699 54.2595 2.1681C54.5478 1.73134 54.9183 1.35634 55.3498 1.0645C56.3465 0.390381 57.734 0.390381 60.509 0.390381H71.3762C74.1512 0.390381 75.5387 0.390381 76.5354 1.0645C76.9669 1.35634 77.3373 1.73134 77.6257 2.1681C78.2916 3.17699 78.2916 4.58146 78.2916 7.39038C78.2916 10.1993 78.2916 11.6038 77.6257 12.6127C77.3373 13.0494 76.9669 13.4244 76.5354 13.7163C75.5387 14.3904 74.1512 14.3904 71.3762 14.3904H60.509C57.734 14.3904 56.3465 14.3904 55.3498 13.7163C54.9183 13.4244 54.5478 13.0494 54.2595 12.6127C53.5935 11.6038 53.5935 10.1993 53.5935 7.39038ZM79.2796 9.14038C80.0758 8.8016 80.5935 8.01351 80.5935 7.14038C80.5935 6.26725 80.0758 5.47916 79.2796 5.14038V9.14038ZM58.429 5.17065V11.3904H60.051V3.63989H58.4343L56.4309 5.03101V6.49194L58.3323 5.17065H58.429ZM62.9939 11.095C63.4558 11.4244 64.0055 11.5891 64.6428 11.5891C65.2838 11.5891 65.8334 11.4244 66.2917 11.095C66.7501 10.762 67.1028 10.2911 67.3499 9.68237C67.5969 9.07365 67.7205 8.35213 67.7205 7.51782V7.50708C67.7205 6.66919 67.5969 5.94767 67.3499 5.34253C67.1028 4.73381 66.7501 4.26473 66.2917 3.9353C65.8334 3.60588 65.2838 3.44116 64.6428 3.44116C64.0055 3.44116 63.4558 3.60588 62.9939 3.9353C62.5356 4.26473 62.1829 4.73381 61.9358 5.34253C61.6887 5.94767 61.5652 6.66919 61.5652 7.50708V7.51782C61.5652 8.35213 61.6887 9.07365 61.9358 9.68237C62.1829 10.2911 62.5356 10.762 62.9939 11.095ZM65.4216 9.97241C65.2104 10.1944 64.9508 10.3054 64.6428 10.3054C64.3385 10.3054 64.0789 10.1944 63.864 9.97241C63.6528 9.75041 63.4898 9.43172 63.3752 9.01636C63.2642 8.60099 63.2087 8.10148 63.2087 7.51782V7.50708C63.2087 6.91984 63.2642 6.42033 63.3752 6.00854C63.4898 5.59318 63.6528 5.27629 63.864 5.05786C64.0789 4.83586 64.3385 4.72485 64.6428 4.72485C64.9508 4.72485 65.2104 4.83586 65.4216 5.05786C65.6365 5.27629 65.7994 5.59318 65.9104 6.00854C66.025 6.42033 66.0823 6.91984 66.0823 7.50708V7.51782C66.0823 8.10148 66.025 8.60099 65.9104 9.01636C65.7994 9.43172 65.6365 9.75041 65.4216 9.97241ZM70.0242 11.095C70.4861 11.4244 71.0357 11.5891 71.6731 11.5891C72.314 11.5891 72.8637 11.4244 73.322 11.095C73.7804 10.762 74.1331 10.2911 74.3801 9.68237C74.6272 9.07365 74.7507 8.35213 74.7507 7.51782V7.50708C74.7507 6.66919 74.6272 5.94767 74.3801 5.34253C74.1331 4.73381 73.7804 4.26473 73.322 3.9353C72.8637 3.60588 72.314 3.44116 71.6731 3.44116C71.0357 3.44116 70.4861 3.60588 70.0242 3.9353C69.5658 4.26473 69.2131 4.73381 68.9661 5.34253C68.719 5.94767 68.5955 6.66919 68.5955 7.50708V7.51782C68.5955 8.35213 68.719 9.07365 68.9661 9.68237C69.2131 10.2911 69.5658 10.762 70.0242 11.095ZM72.4519 9.97241C72.2406 10.1944 71.981 10.3054 71.6731 10.3054C71.3687 10.3054 71.1091 10.1944 70.8943 9.97241C70.683 9.75041 70.5201 9.43172 70.4055 9.01636C70.2945 8.60099 70.239 8.10148 70.239 7.51782V7.50708C70.239 6.91984 70.2945 6.42033 70.4055 6.00854C70.5201 5.59318 70.683 5.27629 70.8943 5.05786C71.1091 4.83586 71.3687 4.72485 71.6731 4.72485C71.981 4.72485 72.2406 4.83586 72.4519 5.05786C72.6667 5.27629 72.8297 5.59318 72.9407 6.00854C73.0553 6.42033 73.1125 6.91984 73.1125 7.50708V7.51782C73.1125 8.10148 73.0553 8.60099 72.9407 9.01636C72.8297 9.43172 72.6667 9.75041 72.4519 9.97241Z" fill="black"/>
</svg>
