<svg width="130" height="38" viewBox="0 0 130 38" fill="none" xmlns="http://www.w3.org/2000/svg">
<path d="M6.69013 0.383112C4.02498 1.49467 1.09983 4.64084 0.176779 8.59305C-0.993283 13.5983 3.87548 15.7109 4.272 15.0219C4.74652 14.2029 3.40095 13.9298 3.12794 11.3297C2.77042 7.97552 4.3305 4.23132 6.2871 2.58673C6.65762 2.28122 6.63812 2.70374 6.63812 3.49678C6.63812 4.90085 6.56012 17.5245 6.56012 20.1572C6.56012 23.7259 6.41061 24.8504 6.1506 25.962C5.87758 27.093 5.44856 27.8536 5.77358 28.1461C6.1376 28.4711 7.69768 27.6911 8.60123 26.4365C9.68029 24.9284 10.0573 23.1148 10.1288 21.1452C10.2068 18.7726 10.2068 15.0089 10.2068 12.8638C10.2068 10.8942 10.2393 5.12837 10.1743 1.65718C10.1548 0.812136 7.80819 -0.0849128 6.69013 0.383112ZM129.41 19.1106C129.02 19.1106 128.851 19.5136 128.702 20.1832C128.201 22.5103 127.662 23.0368 126.979 23.0368C126.219 23.0368 125.529 21.8798 125.354 19.5721C125.211 17.7585 125.237 14.4174 125.412 11.0957C125.451 10.4132 125.263 9.73062 123.43 9.06758C122.643 8.78156 121.493 8.35904 120.927 9.73711C119.315 13.6308 118.685 16.7185 118.535 17.9731C118.522 18.0381 118.444 18.0511 118.431 17.9016C118.34 16.894 118.126 15.0674 118.1 11.2322C118.1 10.4847 117.937 9.84762 117.112 9.32109C116.572 8.98307 114.947 8.38504 114.362 9.10008C113.855 9.68511 113.263 11.2452 112.652 13.1043C112.158 14.6189 111.807 15.6394 111.807 15.6394L111.82 10.0166C111.82 9.4316 111.43 9.23659 111.3 9.20409C110.628 8.99804 109.938 8.85657 109.24 8.78157C108.674 8.78157 108.538 9.10008 108.538 9.5551C108.538 9.61361 108.453 14.9179 108.453 18.6296V19.1496C108.141 20.8592 107.14 23.1733 106.048 23.1733C104.949 23.1733 104.436 22.2048 104.436 17.778C104.436 15.2039 104.514 14.0793 104.546 12.2137C104.572 11.1412 104.611 10.3156 104.611 10.1271C104.605 9.55511 103.61 9.26259 103.149 9.15208C102.762 9.05714 102.364 9.01343 101.966 9.02208C101.517 9.04808 101.205 9.3406 101.205 9.74362V10.3676C100.705 9.58391 99.9634 8.98393 99.0926 8.65806C97.435 8.16403 95.7124 8.59955 94.4123 10.4262C93.3723 11.8757 92.7482 13.5138 92.5012 15.8734C92.3132 17.5226 92.379 19.1909 92.6962 20.8202C92.3127 22.4908 91.5977 23.1733 90.8111 23.1733C89.6736 23.1733 88.848 21.3142 88.9455 18.1031C89.0105 15.984 89.433 14.5019 89.8946 12.3568C90.0896 11.4467 89.9271 10.9592 89.5305 10.5042C89.16 10.0816 88.3735 9.86712 87.2489 10.1336C86.4429 10.3221 85.2923 10.5237 84.2393 10.6797C84.2393 10.6797 84.3043 10.4197 84.3563 9.97763C84.6293 7.63751 82.0811 7.83251 81.2751 8.57355C80.7235 9.06857 80.3856 9.75839 80.3326 10.4977C80.1375 11.9927 81.3596 12.7078 81.3596 12.7078C80.8458 14.8053 80.036 16.8189 78.9545 18.6881C78.4986 19.4986 77.9995 20.2841 77.4594 21.0412L77.4529 20.2222C77.4399 16.3545 77.4919 13.3123 77.5179 12.2137C77.5374 11.1412 77.5829 10.3351 77.5829 10.1466C77.5699 9.73062 77.3229 9.5681 76.8159 9.36659C76.3229 9.17402 75.8034 9.05785 75.2753 9.02208C74.5798 8.97007 74.1572 9.34709 74.1702 9.78262V10.3676C73.6699 9.58391 72.9285 8.98393 72.0576 8.65806C70.4 8.16403 68.6774 8.59955 67.3774 10.4262C66.2984 12.0481 65.6415 13.9138 65.4663 15.8539C65.2839 17.4024 65.3167 18.9687 65.5638 20.5082C65.3038 21.8083 64.5432 23.1733 63.6917 23.1733C62.5931 23.1733 61.9691 22.2048 61.9691 17.778C61.9691 15.2039 62.0471 14.0793 62.0861 12.2137C62.1056 11.1412 62.1511 10.3156 62.1511 10.1271C62.1381 9.55511 61.15 9.26259 60.6885 9.15208C60.2889 9.05368 59.8778 9.00995 59.4664 9.02208C59.0374 9.05458 58.7449 9.4381 58.7449 9.71762V10.3676C58.2446 9.58391 57.5032 8.98393 56.6323 8.65806C54.9747 8.16403 53.2521 8.60605 51.9455 10.4262C51.0875 11.6092 50.392 12.9223 50.0409 15.8279C49.9369 16.6687 49.8893 17.4552 49.8979 18.1876C49.5534 20.2742 48.0453 22.6858 46.8103 22.6858C46.0952 22.6858 45.4062 21.2817 45.4062 18.2981C45.4062 14.3264 45.6532 8.67106 45.6922 8.12503L47.5513 8.09253C48.3314 8.08603 49.0334 8.10553 50.0669 8.05352C50.587 8.02102 51.0875 6.16193 50.5545 5.92791C49.6783 5.79858 48.7944 5.72908 47.9088 5.7199C47.3368 5.7069 45.7442 5.58989 45.7442 5.58989C45.7442 5.58989 45.8872 1.83269 45.9197 1.43617C45.9522 1.11116 45.5232 0.935643 45.2762 0.831638C44.7073 0.605988 44.1171 0.438299 43.5146 0.331113C42.6435 0.149103 42.247 0.32461 42.169 1.05915C42.052 2.18371 41.987 5.45988 41.987 5.45988C41.35 5.45988 39.1594 5.32988 38.5158 5.32988C37.9178 5.32988 37.2808 7.89752 38.0998 7.93002C39.0489 7.96902 40.6999 7.99502 41.7985 8.03402C41.7985 8.03402 41.7465 13.7868 41.7465 15.5614V16.1075C41.1485 19.2471 39.0229 20.9437 39.0229 20.9437C39.4779 18.8636 38.5483 17.3035 36.8712 15.984C35.813 15.1647 34.7447 14.3586 33.6666 13.5658C33.6666 13.5658 34.4531 12.7858 35.1616 11.2192C35.6557 10.1076 35.6817 8.83356 34.4531 8.55405C32.438 8.09252 30.7804 9.57461 30.2864 11.1542C30.0886 11.6696 30.0374 12.2296 30.1384 12.7723C30.2394 13.3149 30.4886 13.8191 30.8584 14.2289L31.0339 14.4369C30.5789 15.3144 29.9549 16.4975 29.4218 17.414C27.9528 19.9492 26.8412 21.9643 26.0027 21.9643C25.3331 21.9643 25.3461 19.9232 25.3461 18.0121C25.3461 16.3675 25.4631 13.8843 25.5606 11.3167C25.5931 10.4717 25.1706 9.99063 24.4556 9.5551C24.0266 9.28859 23.1035 8.76206 22.5705 8.76206C21.7709 8.76206 19.4633 8.87257 17.2857 15.1779C17.0127 15.9709 16.4731 17.4205 16.4731 17.4205L16.5186 9.84112C16.5273 9.65477 16.4233 9.49877 16.2066 9.3731C15.5226 9.00658 14.7652 8.7978 13.99 8.76206C13.574 8.76206 13.366 8.95708 13.366 9.3471L13.288 21.1972C13.288 22.1008 13.314 23.1473 13.405 23.6089C13.496 24.0704 13.6325 24.4474 13.8145 24.6684C13.988 24.9079 14.2458 25.0728 14.536 25.1299C14.8546 25.1949 16.5772 25.416 16.6682 24.7594C16.7787 23.9664 16.7787 23.1083 17.6887 19.9167C19.0993 14.9439 20.9389 12.5193 21.8099 11.6612C21.9594 11.5117 22.135 11.4987 22.1285 11.7457C22.0894 12.8378 21.9594 15.5614 21.8684 17.8755C21.6344 24.0639 22.7655 25.2144 24.3711 25.2144C25.6061 25.2144 27.3417 23.9859 29.2008 20.8917C30.3579 18.9611 31.489 17.0695 32.295 15.7044C32.8605 16.2245 33.4911 16.79 34.1216 17.3945C35.5972 18.7856 36.0717 20.1117 35.7597 21.3662C35.5127 22.3283 34.5896 23.3163 32.9515 22.3543C32.4705 22.0748 32.269 21.8603 31.7815 21.5417C31.5215 21.3727 31.1314 21.3207 30.8974 21.4962C30.3171 21.9432 29.9048 22.5732 29.7274 23.2838C29.5323 23.9924 30.2474 24.3629 30.9819 24.6944C31.619 24.9739 32.9775 25.2339 33.8486 25.2599C37.2418 25.377 39.9589 23.6219 41.844 19.1106C42.182 23.0108 43.6251 25.2209 46.1277 25.2209C47.7983 25.2209 49.4754 23.0563 50.21 20.9307C50.4223 21.7974 50.73 22.5493 51.133 23.1863C53.0571 26.2415 56.8013 25.5785 58.6734 22.9913C58.943 22.6566 59.1701 22.2898 59.3494 21.8993C59.4062 22.7686 59.782 23.5864 60.4046 24.1958C61.0271 24.8051 61.8528 25.1633 62.7231 25.2014C63.9842 25.2014 65.2908 24.6034 66.2073 22.5428C66.3121 22.7637 66.4293 22.9786 66.5583 23.1863C68.4889 26.2415 72.2266 25.5785 74.1052 22.9913L74.3392 22.6598L74.3912 24.2654L72.6621 25.8515C69.763 28.5101 67.5659 30.5252 67.3969 32.8718C67.1954 35.862 69.62 36.9736 71.4596 37.1231C73.4097 37.2726 75.0803 36.2 76.1008 34.692C77.0109 33.3659 77.5959 30.5122 77.5504 27.6911L77.4854 23.5829C80.2493 20.3967 82.3666 16.703 83.7192 12.7078C83.7192 12.7078 84.7918 12.7143 85.9294 12.6428C86.2999 12.6168 86.4039 12.6883 86.3389 12.9613C86.2544 13.2863 84.8893 18.5386 86.1374 22.0423C86.9824 24.4344 88.9065 25.2079 90.0441 25.2079C91.3766 25.2079 92.6442 24.2004 93.3332 22.7053C93.4113 22.87 93.4979 23.0303 93.5933 23.1863C95.5239 26.2415 99.2486 25.5785 101.14 22.9913C101.569 22.4063 101.81 21.8993 101.81 21.8993C102.213 24.4344 104.189 25.2144 105.32 25.2144C106.49 25.2144 107.608 24.7334 108.512 22.5948C108.551 23.5374 108.609 24.3044 108.707 24.5449C108.759 24.7009 109.097 24.8829 109.337 24.9739C110.17 25.2486 111.062 25.2935 111.918 25.1039C112.197 25.0454 112.418 24.8244 112.451 24.2394C112.529 22.7118 112.477 20.1442 112.945 18.2266C113.725 15.0219 114.446 13.7803 114.791 13.1628C114.986 12.8183 115.2 12.7598 115.207 13.1303C115.226 13.8648 115.259 16.0359 115.564 18.9481C115.785 21.0932 116.084 22.3608 116.305 22.7573C116.956 23.9079 117.762 23.9599 118.412 23.9599C118.828 23.9599 119.692 23.8429 119.614 23.1148C119.582 22.7638 119.647 20.5602 120.414 17.4075C120.914 15.3404 121.753 13.4813 122.052 12.7923C122.162 12.5453 122.214 12.7468 122.214 12.7858C122.149 14.2029 122.006 18.8506 122.585 21.3922C123.365 24.8374 125.64 25.2144 126.427 25.2144C128.117 25.2144 129.495 23.9339 129.963 20.5537C130.073 19.7412 129.911 19.1106 129.41 19.1106ZM58.7124 17.024C58.6149 18.8116 58.2574 20.3067 57.7049 21.3922C56.6908 23.3553 54.6887 23.9794 53.8046 21.1387C53.1676 19.0911 53.3821 16.3025 53.6486 14.7944C54.0387 12.5583 55.0267 10.9722 56.5608 11.1217C58.1404 11.2712 58.9139 13.3058 58.7059 17.024M74.1312 17.05C74.0402 18.7401 73.6047 20.4302 73.1237 21.3922C72.1421 23.3683 70.0815 23.9924 69.2235 21.1387C68.6384 19.1951 68.7814 16.6795 69.0675 15.0934C69.4445 13.0328 70.3545 11.1217 71.9861 11.1217C73.5722 11.1217 74.3522 12.8573 74.1312 17.05ZM74.5342 28.5686C74.5147 31.6498 74.0272 34.3539 72.9872 35.134C71.5116 36.239 69.529 35.4135 69.945 33.1644C70.3025 31.1753 72.0251 29.1407 74.5408 26.664L74.5342 28.5686ZM101.166 17.063C101.127 18.5594 100.784 20.0323 100.159 21.3922C99.1771 23.3683 97.1295 23.9859 96.2584 21.1387C95.7839 19.5916 95.7644 17.0045 96.1024 14.8334C96.4534 12.6363 97.422 10.9722 99.0211 11.1217C100.601 11.2712 101.342 13.3058 101.166 17.0695" fill="black"/>
</svg>
